<svg width="179" height="36" viewBox="0 0 179 36" fill="none" xmlns="http://www.w3.org/2000/svg">
<mask id="mask0_1909_4261" style="mask-type:luminance" maskUnits="userSpaceOnUse" x="0" y="0" width="179" height="36">
<path d="M178.853 0H0V35.5473H178.853V0Z" fill="white"/>
</mask>
<g mask="url(#mask0_1909_4261)">
<path d="M16.4994 31.9673C16.4994 31.5567 16.4783 31.1565 16.4994 30.7459C16.5626 29.5455 17.5313 28.5558 18.7316 28.4926C19.4792 28.4505 20.2373 28.4715 20.9954 28.461C22.4906 28.4505 23.6067 27.3133 23.6067 25.8076C23.6067 25.1442 23.5962 24.4809 23.6067 23.807C23.6489 22.3434 24.6386 21.3852 26.1022 21.3536C26.7972 21.3431 27.4921 21.3536 28.187 21.3326C29.5664 21.301 30.6614 20.227 30.693 18.8476C30.7036 18.1211 30.7036 17.4051 30.6825 16.6786C30.6404 15.2361 29.5769 14.1936 28.1133 14.1726C27.4184 14.1726 26.7234 14.1726 26.0285 14.1621C24.6281 14.1305 23.6489 13.1407 23.6067 11.7298C23.5857 11.0348 23.6067 10.3399 23.5962 9.64491C23.5752 8.18132 22.459 7.06521 21.006 7.05468C20.3426 7.05468 19.6793 7.05468 19.0054 7.05468C17.5207 7.03362 16.4994 6.02279 16.4783 4.53815C16.4783 3.84321 16.4783 3.14826 16.4889 2.45332C16.5099 1.06344 17.5102 0.0420844 18.8896 -3.32631e-05C19.5845 -0.0210921 20.2794 -0.0210921 20.9744 -0.0105627C22.4906 0.0104962 23.512 1.06344 23.5225 2.59021C23.5225 3.22197 23.5225 3.86426 23.5225 4.49603C23.5646 6.04385 24.6281 7.09679 26.1654 7.09679C26.8287 7.09679 27.5026 7.09679 28.166 7.09679C29.5348 7.11785 30.5772 8.14973 30.6088 9.50803C30.6299 10.2346 30.6088 10.9611 30.6299 11.6771C30.6614 13.1091 31.746 14.1726 33.1885 14.2042C33.8834 14.2147 36.1788 14.1936 36.8632 14.2042C38.3057 14.2358 39.3166 15.2466 39.3377 16.6786C39.3482 17.4051 39.3587 18.1316 39.3377 18.8476C39.3061 20.1954 38.3162 21.1957 36.979 21.2484C36.2525 21.2799 33.9361 21.2484 33.2096 21.2694C31.7249 21.2905 30.6509 22.375 30.6299 23.8491C30.6299 24.5441 30.6299 25.239 30.6193 25.9339C30.5877 27.3028 29.5664 28.3347 28.187 28.3662C27.4605 28.3873 26.734 28.3662 26.018 28.3873C24.586 28.4294 23.533 29.5139 23.5225 30.967C23.5225 31.6304 23.5225 32.3042 23.512 32.9676C23.4909 34.4522 22.4801 35.4631 20.9849 35.4841C20.4058 35.4841 19.8267 35.4841 19.2476 35.4841C17.4365 35.4841 16.4362 34.4838 16.4783 32.6938C16.4783 32.4306 16.4783 32.1779 16.4783 31.9146C16.4783 31.9146 16.4783 31.9146 16.4889 31.9146L16.4994 31.9673Z" fill="#4766FF"/>
<path d="M9.38158 10.6874C9.38158 10.2241 9.34999 9.76082 9.38158 9.29753C9.48687 8.09717 10.5293 7.16006 11.8033 7.12847C12.5299 7.10741 13.2459 7.11794 13.9724 7.12847C15.3096 7.17059 16.3205 8.14982 16.3836 9.48706C16.4152 10.182 16.3942 10.8769 16.3942 11.5718C16.3942 13.0986 17.4787 14.2147 18.9844 14.2358C19.6162 14.2358 20.2585 14.2358 20.8902 14.2358C22.4696 14.2358 23.512 15.2887 23.5015 16.8471C23.5015 17.542 23.5015 18.237 23.4805 18.9319C23.4383 20.2375 22.4696 21.2273 21.164 21.2905C20.4164 21.3221 19.6583 21.2905 18.9107 21.3115C17.5103 21.3326 16.3942 22.4698 16.3836 23.8702C16.3836 24.5651 16.4047 25.2601 16.3836 25.955C16.3521 27.3765 15.3202 28.4084 13.8987 28.4294C13.1722 28.44 12.4562 28.4505 11.7296 28.4294C10.3924 28.3768 9.40264 27.3765 9.36052 26.0287C9.33946 25.3022 9.33946 24.5862 9.36052 23.8597C9.38158 22.3855 10.424 21.3853 11.9086 21.3642C12.572 21.3642 13.2353 21.3642 13.9092 21.3642C15.3412 21.3431 16.4363 20.2691 16.4679 18.8371C16.4889 18.1422 16.4889 17.4473 16.4679 16.7523C16.4152 15.2677 15.3202 14.2147 13.846 14.2042C13.2353 14.2042 12.6352 14.2042 12.0245 14.2042C10.3608 14.2042 9.38158 13.225 9.38158 11.5718C9.38158 11.277 9.38158 10.9927 9.38158 10.6979V10.6874Z" fill="#4766FF"/>
<path d="M0.000319356 17.7529C0.000319356 17.4054 0.000319356 17.0579 0.000319356 16.7105C0.0213782 15.3206 1.01114 14.2992 2.40102 14.2571C3.12755 14.236 6.09685 14.236 6.82337 14.2571C8.24485 14.2887 9.2662 15.31 9.30832 16.742C9.32937 17.458 9.31884 18.1846 9.30832 18.9006C9.27673 20.2589 8.22379 21.2908 6.86549 21.3223C6.25479 21.3329 3.40132 21.3223 2.79061 21.3223C1.00061 21.3329 -0.0207395 20.3115 0.000319356 18.532C0.000319356 18.2688 0.000319356 18.0161 0.000319356 17.7529Z" fill="#4766FF"/>
<path d="M61.7452 3.9804H42.8765V8.16058H50.047V28.177H54.522V8.16058H61.7452V3.9804Z" fill="#070b22"/>
<path d="M66.2944 10.3083C63.6831 10.3083 61.6194 11.1401 60.1137 12.8038C58.608 14.4674 57.8604 16.7312 57.8604 19.5952C57.8604 22.4592 58.6396 24.7968 60.2084 26.4604C61.7773 28.1241 63.9359 28.9559 66.7051 28.9559C68.7478 28.9559 70.4957 28.4294 71.9382 27.3659C73.3807 26.3025 74.3073 24.8494 74.7285 22.9962L70.3588 22.3329C70.1903 23.1752 69.7691 23.8281 69.1163 24.3124C68.4635 24.7968 67.6527 25.0389 66.6946 25.0389C65.41 25.0389 64.3991 24.6809 63.6621 23.9649C62.925 23.2489 62.5039 22.2171 62.4091 20.8588H74.7285V19.3741C74.7285 16.6575 73.9704 14.4674 72.4752 12.8038C70.9695 11.1401 68.9057 10.3083 66.2944 10.3083ZM62.4828 17.8158C62.6302 16.6575 63.0303 15.7625 63.6831 15.1308C64.336 14.499 65.2099 14.1831 66.2944 14.1831C67.379 14.1831 68.3266 14.5201 69.0742 15.2045C69.8113 15.8784 70.1798 16.7523 70.1798 17.8158H62.4828Z" fill="#070b22"/>
<path d="M87.4272 24.0392C86.7217 24.7025 85.8688 25.0395 84.858 25.0395C83.5734 25.0395 82.5731 24.5762 81.8571 23.6285C81.1411 22.6914 80.7831 21.3436 80.7831 19.5958C80.7831 17.8479 81.1411 16.5422 81.8571 15.5946C82.5731 14.6575 83.5734 14.1836 84.858 14.1836C85.8162 14.1836 86.6269 14.489 87.2798 15.0892C87.9326 15.6894 88.4064 16.5528 88.7012 17.6584L92.9972 17.0266C92.3549 14.8786 91.302 13.2255 89.8489 12.0462C88.3959 10.8774 86.7322 10.2878 84.858 10.2878C82.2467 10.2878 80.1619 11.0985 78.6035 12.7306C77.0452 14.3626 76.2765 16.637 76.2765 19.5747C76.2765 22.5124 77.0557 24.8394 78.6035 26.4715C80.1619 28.1141 82.2467 28.9354 84.858 28.9354C86.9534 28.9354 88.7539 28.3141 90.2596 27.0716C91.7653 25.8292 92.7235 24.0813 93.1446 21.8385L88.7749 21.2068C88.5749 22.4176 88.1221 23.3548 87.4272 24.0181V24.0392Z" fill="#070b22"/>
<path d="M104.221 10.3823C102.441 10.3823 100.999 11.0878 99.8932 12.5093C99.135 13.478 98.6612 14.5836 98.419 15.8155L97.7136 15.5628L98.8613 11.1615V3.9804H94.3863V28.177H98.8613V17.6371C98.8613 16.6263 99.1772 15.805 99.8195 15.1732C100.462 14.5414 101.273 14.2256 102.262 14.2256C103.252 14.2256 104.01 14.5309 104.61 15.1311C105.211 15.7313 105.516 16.542 105.516 17.5528V28.177H109.991V17.1527C109.991 15.2574 109.433 13.6464 108.328 12.3408C107.222 11.0351 105.853 10.3823 104.221 10.3823Z" fill="#070b22"/>
<path d="M111.719 28.177H116.194V18.1846H126.187V13.9728H116.194V8.2027H126.924V3.9804H111.719V28.177Z" fill="#070b22"/>
<path d="M132.882 3.9804H128.407V28.177H132.882V3.9804Z" fill="#070b22"/>
<path d="M142.559 10.3083C139.969 10.3083 137.915 11.1191 136.399 12.7511C134.883 14.3832 134.125 16.6575 134.125 19.5952C134.125 22.5329 134.883 24.8599 136.399 26.492C137.915 28.1346 139.969 28.9559 142.538 28.9559C145.107 28.9559 147.171 28.1346 148.697 26.492C150.224 24.8494 150.993 22.554 150.993 19.5952C150.993 16.6365 150.193 14.4358 148.592 12.7827C146.992 11.1296 144.981 10.3083 142.559 10.3083ZM145.454 23.628C144.759 24.5651 143.801 25.0389 142.569 25.0389C141.337 25.0389 140.369 24.5757 139.684 23.628C138.989 22.6909 138.652 21.3431 138.652 19.5952C138.652 17.8474 139 16.5417 139.684 15.5941C140.379 14.6569 141.337 14.1831 142.569 14.1831C143.801 14.1831 144.759 14.6569 145.454 15.5941C146.149 16.5312 146.486 17.8684 146.486 19.5952C146.486 21.3221 146.139 22.6909 145.454 23.628Z" fill="#070b22"/>
<path d="M174.305 11.1618L171.715 21.628L171.42 23.7023H170.936L170.567 21.628L167.945 11.1618H161.796L159.174 21.628L158.764 23.7023H158.29L158.058 21.628L155.468 11.1618H150.888L155.215 28.1773H161.912L164.386 17.5637L164.649 15.342H165.092L165.355 17.5637L167.871 28.1773H174.568L178.854 11.1618H174.305Z" fill="#070b22"/>
</g>
</svg>
